# This file uses centimeters as units for non-parametric coordinates.

mtllib OutdoorTent.mtl
g default
v -12.113054 9.047617 -12.229557
v -12.268734 9.120395 -5.774710
v -12.364531 9.032596 0.562418
v -6.085372 15.666653 -6.026350
v -12.353562 10.782734 0.499138
v -12.240026 10.660588 -5.847574
v -12.075659 10.753607 -12.235468
v 0.391932 9.021467 -12.256076
v -5.933341 8.992832 -12.148626
v -5.981290 10.779280 -12.264714
v 0.415747 10.802134 -12.233661
v 0.272352 9.015162 0.228328
v 0.356388 8.968655 -6.075695
v 0.293238 10.779163 -6.128666
v 0.213965 10.772808 0.226281
v -6.097199 8.975394 0.406971
v -6.084559 10.779280 0.364830
vt 0.000000 0.000000
vt 0.500000 0.000000
vt 1.000000 0.000000
vt 0.500000 1.000000
vt 1.000000 0.240213
vt 0.500000 0.240213
vt 0.000000 0.240213
vt 0.000000 0.000000
vt 0.500000 0.240213
vt 0.000000 0.240213
vt 1.000000 0.000000
vt 1.000000 0.240213
vt 0.500000 1.000000
vt 0.500000 0.000000
vt 0.000000 0.000000
vt 0.500000 0.240213
vt 0.000000 0.240213
vt 1.000000 0.000000
vt 1.000000 0.240213
vt 0.500000 1.000000
vt 0.500000 0.000000
vt 0.000000 0.000000
vt 0.500000 0.240213
vt 0.000000 0.240213
vt 1.000000 0.000000
vt 1.000000 0.240213
vt 0.500000 1.000000
vt 0.500000 0.000000
vn -0.999439 0.021819 -0.025399
vn -0.652499 0.757616 -0.016217
vn -0.784794 0.619656 -0.011170
vn -0.999822 0.005614 -0.017994
vn -0.797597 0.602635 -0.025866
vn -0.631197 0.775472 -0.015292
vn -0.999552 0.017480 -0.024305
vn -0.999653 0.017710 -0.019485
vn -0.999647 0.017695 -0.019803
vn -0.999729 0.017930 -0.014864
vn 0.004809 0.012523 -0.999910
vn -0.002868 0.768798 -0.639485
vn 0.001615 0.617087 -0.786893
vn -0.004785 -0.003360 -0.999983
vn -0.006378 0.622235 -0.782805
vn -0.002932 0.787161 -0.616741
vn -0.016653 -0.065282 -0.997728
vn -0.002521 -0.064913 -0.997888
vn -0.001987 -0.064899 -0.997890
vn 0.012496 -0.064507 -0.997839
vn 0.999370 0.033213 0.012500
vn 0.631641 0.775167 0.012108
vn 0.773536 0.633669 0.010283
vn 0.999707 -0.013622 0.020010
vn 0.783791 0.620762 0.018064
vn 0.608290 0.793630 0.011622
vn 0.999294 0.035238 0.013061
vn 0.999336 0.035139 0.009656
vn 0.999337 0.035136 0.009523
vn 0.999368 0.035035 0.006047
vn 0.021425 0.035991 0.999122
vn 0.014287 0.776499 0.629957
vn 0.016938 0.632525 0.774355
vn 0.021994 0.001895 0.999756
vn 0.017790 0.626136 0.779511
vn 0.013819 0.794283 0.607391
vn 0.025000 0.023173 0.999419
vn 0.026448 0.023162 0.999382
vn 0.026462 0.023162 0.999382
vn 0.027883 0.023151 0.999343
s 1
g pPlane4
usemtl white_fabric_SG
f 1/1/1 6/6/2 7/7/3
f 6/6/2 3/3/4 5/5/5
f 7/7/3 6/6/2 4/4/6
f 6/6/2 5/5/5 4/4/6
s 3
f 1/1/7 2/2/8 6/6/9
f 2/2/8 3/3/10 6/6/9
s 4
f 8/8/11 10/9/12 11/10/13
f 10/9/12 1/11/14 7/12/15
f 11/10/13 10/9/12 4/13/16
f 10/9/12 7/12/15 4/13/16
s 6
f 8/8/17 9/14/18 10/9/19
f 9/14/18 1/11/20 10/9/19
s 7
f 12/15/21 14/16/22 15/17/23
f 14/16/22 8/18/24 11/19/25
f 4/20/26 15/17/23 14/16/22
f 11/19/25 4/20/26 14/16/22
s 9
f 12/15/27 13/21/28 14/16/29
f 13/21/28 8/18/30 14/16/29
s 10
f 3/22/31 17/23/32 5/24/33
f 17/23/32 12/25/34 15/26/35
f 4/27/36 5/24/33 17/23/32
f 15/26/35 4/27/36 17/23/32
s 12
f 3/22/37 16/28/38 17/23/39
f 16/28/38 12/25/40 17/23/39
g default
v -0.155775 3.930977 -11.835557
v 0.155775 3.930977 -11.835557
v -0.155775 10.284248 -11.835557
v 0.155775 10.284248 -11.835557
v -0.155775 10.284248 -12.147107
v 0.155775 10.284248 -12.147107
v -0.155775 3.930977 -12.147107
v 0.155775 3.930977 -12.147107
v -0.105775 3.930977 -12.097107
v 0.105775 3.930977 -12.097107
v 0.105775 3.930977 -11.885557
v -0.105775 3.930977 -11.885557
v -0.105775 -0.098331 -12.097107
v 0.105775 -0.098331 -12.097107
v 0.105775 -0.098331 -11.885557
v -0.105775 -0.098331 -11.885557
v -12.064658 3.930977 -11.835557
v -11.753108 3.930977 -11.835557
v -12.064658 10.284248 -11.835557
v -11.753108 10.284248 -11.835557
v -12.064658 10.284248 -12.147107
v -11.753108 10.284248 -12.147107
v -12.064658 3.930977 -12.147107
v -11.753108 3.930977 -12.147107
v -12.014658 3.930977 -12.097107
v -11.803108 3.930977 -12.097107
v -11.803108 3.930977 -11.885557
v -12.014658 3.930977 -11.885557
v -12.014658 -0.098331 -12.097107
v -11.803108 -0.098331 -12.097107
v -11.803108 -0.098331 -11.885557
v -12.014658 -0.098331 -11.885557
v -12.064658 3.930977 0.190287
v -11.753108 3.930977 0.190287
v -12.064658 10.284248 0.190287
v -11.753108 10.284248 0.190287
v -12.064658 10.284248 -0.121264
v -11.753108 10.284248 -0.121264
v -12.064658 3.930977 -0.121264
v -11.753108 3.930977 -0.121264
v -12.014658 3.930977 -0.071264
v -11.803108 3.930977 -0.071264
v -11.803108 3.930977 0.140287
v -12.014658 3.930977 0.140287
v -12.014658 -0.098331 -0.071264
v -11.803108 -0.098331 -0.071264
v -11.803108 -0.098331 0.140287
v -12.014658 -0.098331 0.140287
v -0.155775 3.930977 0.155775
v 0.155775 3.930977 0.155775
v -0.155775 10.284248 0.155775
v 0.155775 10.284248 0.155775
v -0.155775 10.284248 -0.155775
v 0.155775 10.284248 -0.155775
v -0.155775 3.930977 -0.155775
v 0.155775 3.930977 -0.155775
v -0.105775 3.930977 -0.105775
v 0.105775 3.930977 -0.105775
v 0.105775 3.930977 0.105775
v -0.105775 3.930977 0.105775
v -0.105775 -0.098331 -0.105775
v 0.105775 -0.098331 -0.105775
v 0.105775 -0.098331 0.105775
v -0.105775 -0.098331 0.105775
vt 0.375000 0.000000
vt 0.625000 0.000000
vt 0.375000 0.250000
vt 0.625000 0.250000
vt 0.375000 0.500000
vt 0.625000 0.500000
vt 0.375000 0.750000
vt 0.625000 0.750000
vt 0.375000 1.000000
vt 0.625000 1.000000
vt 0.875000 0.000000
vt 0.875000 0.250000
vt 0.125000 0.000000
vt 0.125000 0.250000
vt 0.375000 0.750000
vt 0.625000 0.750000
vt 0.625000 1.000000
vt 0.375000 1.000000
vt 0.375000 0.750000
vt 0.625000 0.750000
vt 0.625000 1.000000
vt 0.375000 1.000000
vt 0.375000 0.000000
vt 0.625000 0.000000
vt 0.625000 0.250000
vt 0.375000 0.250000
vt 0.625000 0.500000
vt 0.375000 0.500000
vt 0.625000 0.750000
vt 0.375000 0.750000
vt 0.375000 0.750000
vt 0.625000 0.750000
vt 0.625000 1.000000
vt 0.375000 1.000000
vt 0.875000 0.000000
vt 0.875000 0.250000
vt 0.125000 0.000000
vt 0.125000 0.250000
vt 0.625000 0.750000
vt 0.375000 0.750000
vt 0.625000 1.000000
vt 0.625000 1.000000
vt 0.375000 1.000000
vt 0.375000 1.000000
vt 0.375000 0.000000
vt 0.625000 0.000000
vt 0.625000 0.250000
vt 0.375000 0.250000
vt 0.625000 0.500000
vt 0.375000 0.500000
vt 0.625000 0.750000
vt 0.375000 0.750000
vt 0.375000 0.750000
vt 0.625000 0.750000
vt 0.625000 1.000000
vt 0.375000 1.000000
vt 0.875000 0.000000
vt 0.875000 0.250000
vt 0.125000 0.000000
vt 0.125000 0.250000
vt 0.625000 0.750000
vt 0.375000 0.750000
vt 0.625000 1.000000
vt 0.625000 1.000000
vt 0.375000 1.000000
vt 0.375000 1.000000
vt 0.375000 0.000000
vt 0.625000 0.000000
vt 0.625000 0.250000
vt 0.375000 0.250000
vt 0.625000 0.500000
vt 0.375000 0.500000
vt 0.625000 0.750000
vt 0.375000 0.750000
vt 0.375000 0.750000
vt 0.625000 0.750000
vt 0.625000 1.000000
vt 0.375000 1.000000
vt 0.875000 0.000000
vt 0.875000 0.250000
vt 0.125000 0.000000
vt 0.125000 0.250000
vt 0.625000 0.750000
vt 0.375000 0.750000
vt 0.625000 1.000000
vt 0.625000 1.000000
vt 0.375000 1.000000
vt 0.375000 1.000000
vn 0.000000 0.000000 1.000000
vn 0.000000 0.000000 1.000000
vn 0.000000 0.000000 1.000000
vn 0.000000 0.000000 1.000000
vn 0.000000 1.000000 0.000000
vn 0.000000 1.000000 0.000000
vn 0.000000 1.000000 0.000000
vn 0.000000 1.000000 0.000000
vn 0.000000 0.000000 -1.000000
vn 0.000000 0.000000 -1.000000
vn 0.000000 0.000000 -1.000000
vn 0.000000 0.000000 -1.000000
vn 0.000000 -1.000000 0.000000
vn 0.000000 -1.000000 0.000000
vn 0.000000 -1.000000 0.000000
vn 0.000000 -1.000000 0.000000
vn 1.000000 0.000000 0.000000
vn 1.000000 0.000000 0.000000
vn 1.000000 0.000000 0.000000
vn 1.000000 0.000000 0.000000
vn -1.000000 0.000000 0.000000
vn -1.000000 0.000000 0.000000
vn -1.000000 0.000000 0.000000
vn -1.000000 0.000000 0.000000
vn 0.000000 -1.000000 -0.000002
vn 0.000000 -1.000000 -0.000002
vn 0.000000 -1.000000 -0.000002
vn 0.000000 -1.000000 -0.000002
vn 0.000000 -1.000000 0.000002
vn 0.000000 -1.000000 0.000002
vn 0.000000 -1.000000 0.000002
vn 0.000000 -1.000000 0.000002
vn 0.000000 0.000000 -1.000000
vn 0.000000 0.000000 -1.000000
vn 0.000000 0.000000 -1.000000
vn 0.000000 0.000000 -1.000000
vn 1.000000 0.000000 0.000000
vn 1.000000 0.000000 0.000000
vn 1.000000 0.000000 0.000000
vn 1.000000 0.000000 0.000000
vn 0.000000 0.000000 1.000000
vn 0.000000 0.000000 1.000000
vn 0.000000 0.000000 1.000000
vn 0.000000 0.000000 1.000000
vn -1.000000 0.000000 0.000000
vn -1.000000 0.000000 0.000000
vn -1.000000 0.000000 0.000000
vn -1.000000 0.000000 0.000000
vn 0.000000 0.000000 1.000000
vn 0.000000 0.000000 1.000000
vn 0.000000 0.000000 1.000000
vn 0.000000 0.000000 1.000000
vn 0.000000 1.000000 0.000000
vn 0.000000 1.000000 0.000000
vn 0.000000 1.000000 0.000000
vn 0.000000 1.000000 0.000000
vn 0.000000 0.000000 -1.000000
vn 0.000000 0.000000 -1.000000
vn 0.000000 0.000000 -1.000000
vn 0.000000 0.000000 -1.000000
vn 0.000000 -1.000000 0.000000
vn 0.000000 -1.000000 0.000000
vn 0.000000 -1.000000 0.000000
vn 0.000000 -1.000000 0.000000
vn 1.000000 0.000000 0.000000
vn 1.000000 0.000000 0.000000
vn 1.000000 0.000000 0.000000
vn 1.000000 0.000000 0.000000
vn -1.000000 0.000000 0.000000
vn -1.000000 0.000000 0.000000
vn -1.000000 0.000000 0.000000
vn -1.000000 0.000000 0.000000
vn 0.000000 -1.000000 0.000002
vn 0.000000 -1.000000 0.000002
vn 0.000000 -1.000000 0.000002
vn 0.000000 -1.000000 0.000002
vn 0.000000 -1.000000 -0.000002
vn 0.000000 -1.000000 -0.000002
vn 0.000000 -1.000000 -0.000002
vn 0.000000 -1.000000 -0.000002
vn 0.000000 0.000000 -1.000000
vn 0.000000 0.000000 -1.000000
vn 0.000000 0.000000 -1.000000
vn 0.000000 0.000000 -1.000000
vn 1.000000 0.000000 0.000000
vn 1.000000 0.000000 0.000000
vn 1.000000 0.000000 0.000000
vn 1.000000 0.000000 0.000000
vn 0.000000 0.000000 1.000000
vn 0.000000 0.000000 1.000000
vn 0.000000 0.000000 1.000000
vn 0.000000 0.000000 1.000000
vn -1.000000 0.000000 0.000000
vn -1.000000 0.000000 0.000000
vn -1.000000 0.000000 0.000000
vn -1.000000 0.000000 0.000000
vn 0.000000 0.000000 1.000000
vn 0.000000 0.000000 1.000000
vn 0.000000 0.000000 1.000000
vn 0.000000 0.000000 1.000000
vn 0.000000 1.000000 0.000000
vn 0.000000 1.000000 0.000000
vn 0.000000 1.000000 0.000000
vn 0.000000 1.000000 0.000000
vn 0.000000 0.000000 -1.000000
vn 0.000000 0.000000 -1.000000
vn 0.000000 0.000000 -1.000000
vn 0.000000 0.000000 -1.000000
vn 0.000000 -1.000000 0.000000
vn 0.000000 -1.000000 0.000000
vn 0.000000 -1.000000 0.000000
vn 0.000000 -1.000000 0.000000
vn 1.000000 0.000000 0.000000
vn 1.000000 0.000000 0.000000
vn 1.000000 0.000000 0.000000
vn 1.000000 0.000000 0.000000
vn -1.000000 0.000000 0.000000
vn -1.000000 0.000000 0.000000
vn -1.000000 0.000000 0.000000
vn -1.000000 0.000000 0.000000
vn 0.000000 -1.000000 0.000002
vn 0.000000 -1.000000 0.000002
vn 0.000000 -1.000000 0.000002
vn 0.000000 -1.000000 0.000002
vn 0.000000 -1.000000 -0.000002
vn 0.000000 -1.000000 -0.000002
vn 0.000000 -1.000000 -0.000002
vn 0.000000 -1.000000 -0.000002
vn 0.000000 0.000000 -1.000000
vn 0.000000 0.000000 -1.000000
vn 0.000000 0.000000 -1.000000
vn 0.000000 0.000000 -1.000000
vn 1.000000 0.000000 0.000000
vn 1.000000 0.000000 0.000000
vn 1.000000 0.000000 0.000000
vn 1.000000 0.000000 0.000000
vn 0.000000 0.000000 1.000000
vn 0.000000 0.000000 1.000000
vn 0.000000 0.000000 1.000000
vn 0.000000 0.000000 1.000000
vn -1.000000 0.000000 0.000000
vn -1.000000 0.000000 0.000000
vn -1.000000 0.000000 0.000000
vn -1.000000 0.000000 0.000000
vn 0.000000 0.000000 1.000000
vn 0.000000 0.000000 1.000000
vn 0.000000 0.000000 1.000000
vn 0.000000 0.000000 1.000000
vn 0.000000 1.000000 0.000000
vn 0.000000 1.000000 0.000000
vn 0.000000 1.000000 0.000000
vn 0.000000 1.000000 0.000000
vn 0.000000 0.000000 -1.000000
vn 0.000000 0.000000 -1.000000
vn 0.000000 0.000000 -1.000000
vn 0.000000 0.000000 -1.000000
vn 0.000000 -1.000000 0.000000
vn 0.000000 -1.000000 0.000000
vn 0.000000 -1.000000 0.000000
vn 0.000000 -1.000000 0.000000
vn 1.000000 0.000000 0.000000
vn 1.000000 0.000000 0.000000
vn 1.000000 0.000000 0.000000
vn 1.000000 0.000000 0.000000
vn -1.000000 0.000000 0.000000
vn -1.000000 0.000000 0.000000
vn -1.000000 0.000000 0.000000
vn -1.000000 0.000000 0.000000
vn 0.000000 -1.000000 -0.000002
vn 0.000000 -1.000000 -0.000002
vn 0.000000 -1.000000 -0.000002
vn 0.000000 -1.000000 -0.000002
vn 0.000000 -1.000000 0.000002
vn 0.000000 -1.000000 0.000002
vn 0.000000 -1.000000 0.000002
vn 0.000000 -1.000000 0.000002
vn 0.000000 0.000000 -1.000000
vn 0.000000 0.000000 -1.000000
vn 0.000000 0.000000 -1.000000
vn 0.000000 0.000000 -1.000000
vn 1.000000 0.000000 0.000000
vn 1.000000 0.000000 0.000000
vn 1.000000 0.000000 0.000000
vn 1.000000 0.000000 0.000000
vn 0.000000 0.000000 1.000000
vn 0.000000 0.000000 1.000000
vn 0.000000 0.000000 1.000000
vn 0.000000 0.000000 1.000000
vn -1.000000 0.000000 0.000000
vn -1.000000 0.000000 0.000000
vn -1.000000 0.000000 0.000000
vn -1.000000 0.000000 0.000000
s off
g pCube14
usemtl specular_white_phenolic_SG
f 18/29/41 19/30/42 21/32/43 20/31/44
f 20/31/45 21/32/46 23/34/47 22/33/48
f 22/33/49 23/34/50 25/36/51 24/35/52
f 30/47/53 31/48/54 32/49/55 33/50/56
f 19/30/57 25/39/58 23/40/59 21/32/60
f 24/41/61 18/29/62 20/31/63 22/42/64
s 1
f 24/35/65 25/36/66 27/44/67 26/43/68
f 25/36/66 19/38/69 28/45/70 27/44/67
f 19/38/69 18/37/71 29/46/72 28/45/70
f 18/37/71 24/35/65 26/43/68 29/46/72
s off
f 26/43/73 27/44/74 31/48/75 30/47/76
f 27/44/77 28/45/78 32/49/79 31/48/80
f 28/45/81 29/46/82 33/50/83 32/49/84
f 29/46/85 26/43/86 30/47/87 33/50/88
f 34/51/89 35/52/90 37/53/91 36/54/92
f 36/54/93 37/53/94 39/55/95 38/56/96
f 38/56/97 39/55/98 41/57/99 40/58/100
f 46/59/101 47/60/102 48/61/103 49/62/104
f 35/52/105 41/63/106 39/64/107 37/53/108
f 40/65/109 34/51/110 36/54/111 38/66/112
s 2
f 40/58/113 41/57/114 43/67/115 42/68/116
f 41/57/114 35/69/117 44/70/118 43/67/115
f 35/69/117 34/71/119 45/72/120 44/70/118
f 34/71/119 40/58/113 42/68/116 45/72/120
s off
f 42/68/121 43/67/122 47/60/123 46/59/124
f 43/67/125 44/70/126 48/61/127 47/60/128
f 44/70/129 45/72/130 49/62/131 48/61/132
f 45/72/133 42/68/134 46/59/135 49/62/136
f 50/73/137 51/74/138 53/75/139 52/76/140
f 52/76/141 53/75/142 55/77/143 54/78/144
f 54/78/145 55/77/146 57/79/147 56/80/148
f 62/81/149 63/82/150 64/83/151 65/84/152
f 51/74/153 57/85/154 55/86/155 53/75/156
f 56/87/157 50/73/158 52/76/159 54/88/160
s 3
f 56/80/161 57/79/162 59/89/163 58/90/164
f 57/79/162 51/91/165 60/92/166 59/89/163
f 51/91/165 50/93/167 61/94/168 60/92/166
f 50/93/167 56/80/161 58/90/164 61/94/168
s off
f 58/90/169 59/89/170 63/82/171 62/81/172
f 59/89/173 60/92/174 64/83/175 63/82/176
f 60/92/177 61/94/178 65/84/179 64/83/180
f 61/94/181 58/90/182 62/81/183 65/84/184
f 66/95/185 67/96/186 69/97/187 68/98/188
f 68/98/189 69/97/190 71/99/191 70/100/192
f 70/100/193 71/99/194 73/101/195 72/102/196
f 78/103/197 79/104/198 80/105/199 81/106/200
f 67/96/201 73/107/202 71/108/203 69/97/204
f 72/109/205 66/95/206 68/98/207 70/110/208
s 4
f 72/102/209 73/101/210 75/111/211 74/112/212
f 73/101/210 67/113/213 76/114/214 75/111/211
f 67/113/213 66/115/215 77/116/216 76/114/214
f 66/115/215 72/102/209 74/112/212 77/116/216
s off
f 74/112/217 75/111/218 79/104/219 78/103/220
f 75/111/221 76/114/222 80/105/223 79/104/224
f 76/114/225 77/116/226 81/106/227 80/105/228
f 77/116/229 74/112/230 78/103/231 81/106/232
g default
v -12.113054 9.047617 -12.229557
v -12.268734 9.120395 -5.774710
v -12.364531 9.032596 0.562418
v -6.085372 15.666653 -6.026350
v -12.353562 10.782734 0.499138
v -12.240026 10.660588 -5.847574
v -12.075659 10.753607 -12.235468
v 0.391932 9.021467 -12.256076
v -5.933341 8.992832 -12.148626
v -5.981290 10.779280 -12.264714
v 0.415747 10.802134 -12.233661
v 0.272352 9.015162 0.228328
v 0.356388 8.968655 -6.075695
v 0.293238 10.779163 -6.128666
v 0.213965 10.772808 0.226281
v -6.097199 8.975394 0.406971
v -6.084559 10.779280 0.364830
vt 0.000000 0.000000
vt 0.500000 0.000000
vt 1.000000 0.000000
vt 0.500000 1.000000
vt 1.000000 0.240213
vt 0.500000 0.240213
vt 0.000000 0.240213
vt 0.000000 0.000000
vt 0.500000 0.240213
vt 0.000000 0.240213
vt 1.000000 0.000000
vt 1.000000 0.240213
vt 0.500000 1.000000
vt 0.500000 0.000000
vt 0.000000 0.000000
vt 0.500000 0.240213
vt 0.000000 0.240213
vt 1.000000 0.000000
vt 1.000000 0.240213
vt 0.500000 1.000000
vt 0.500000 0.000000
vt 0.000000 0.000000
vt 0.500000 0.240213
vt 0.000000 0.240213
vt 1.000000 0.000000
vt 1.000000 0.240213
vt 0.500000 1.000000
vt 0.500000 0.000000
vn -0.999439 0.021819 -0.025399
vn -0.652499 0.757616 -0.016217
vn -0.784794 0.619656 -0.011170
vn -0.999822 0.005614 -0.017994
vn -0.797597 0.602635 -0.025866
vn -0.631197 0.775472 -0.015292
vn -0.999552 0.017480 -0.024305
vn -0.999653 0.017710 -0.019485
vn -0.999647 0.017695 -0.019803
vn -0.999729 0.017930 -0.014864
vn 0.004809 0.012523 -0.999910
vn -0.002868 0.768798 -0.639485
vn 0.001615 0.617087 -0.786893
vn -0.004785 -0.003360 -0.999983
vn -0.006378 0.622235 -0.782805
vn -0.002932 0.787161 -0.616741
vn -0.016653 -0.065282 -0.997728
vn -0.002521 -0.064913 -0.997888
vn -0.001987 -0.064899 -0.997890
vn 0.012496 -0.064507 -0.997839
vn 0.999370 0.033213 0.012500
vn 0.631641 0.775167 0.012108
vn 0.773536 0.633669 0.010283
vn 0.999707 -0.013622 0.020010
vn 0.783791 0.620762 0.018064
vn 0.608290 0.793630 0.011622
vn 0.999294 0.035238 0.013061
vn 0.999336 0.035139 0.009656
vn 0.999337 0.035136 0.009523
vn 0.999368 0.035035 0.006047
vn 0.021425 0.035991 0.999122
vn 0.014287 0.776499 0.629957
vn 0.016938 0.632525 0.774355
vn 0.021994 0.001895 0.999756
vn 0.017790 0.626136 0.779511
vn 0.013819 0.794283 0.607391
vn 0.025000 0.023173 0.999419
vn 0.026448 0.023162 0.999382
vn 0.026462 0.023162 0.999382
vn 0.027883 0.023151 0.999343
s 1
g pPlane5
usemtl white_fabric_SG
f 82/117/233 87/122/234 88/123/235
f 87/122/234 84/119/236 86/121/237
f 88/123/235 87/122/234 85/120/238
f 87/122/234 86/121/237 85/120/238
s 3
f 82/117/239 83/118/240 87/122/241
f 83/118/240 84/119/242 87/122/241
s 4
f 89/124/243 91/125/244 92/126/245
f 91/125/244 82/127/246 88/128/247
f 92/126/245 91/125/244 85/129/248
f 91/125/244 88/128/247 85/129/248
s 6
f 89/124/249 90/130/250 91/125/251
f 90/130/250 82/127/252 91/125/251
s 7
f 93/131/253 95/132/254 96/133/255
f 95/132/254 89/134/256 92/135/257
f 85/136/258 96/133/255 95/132/254
f 92/135/257 85/136/258 95/132/254
s 9
f 93/131/259 94/137/260 95/132/261
f 94/137/260 89/134/262 95/132/261
s 10
f 84/138/263 98/139/264 86/140/265
f 98/139/264 93/141/266 96/142/267
f 85/143/268 86/140/265 98/139/264
f 96/142/267 85/143/268 98/139/264
s 12
f 84/138/269 97/144/270 98/139/271
f 97/144/270 93/141/272 98/139/271
